<svg width="130" height="41" viewBox="0 0 130 41" fill="none" xmlns="http://www.w3.org/2000/svg">
<path d="M30.7197 9.03955C31.5347 9.34352 32.5601 10.1284 33.3233 10.6416L37.1259 13.2012L54.8421 24.9922C56.0981 25.8168 57.3348 26.669 58.5957 27.4912C59.6324 28.1673 60.5869 28.9363 61.7158 29.4862C60.6847 29.4363 58.5172 29.5993 57.6469 29.4511C57.6481 32.9398 57.5889 36.5752 57.6288 40.046C56.4968 39.9627 54.3598 40.0205 53.1649 40.0347C53.2172 39.0778 53.1686 37.839 53.1786 36.8563C53.2029 34.4263 53.1481 31.9797 53.2029 29.5493C52.8733 29.3948 51.8329 28.6262 51.3793 28.355C49.4816 27.1383 47.4823 25.7367 45.5958 24.4692L37.4875 19.0858L33.7228 16.5745C32.692 15.8802 31.8637 15.2462 30.7529 14.6732C28.9403 15.4598 23.5872 19.8427 22.2572 20.0945C21.4114 20.2547 20.4424 20.1624 19.5796 20.1578C17.6854 20.1478 15.7717 20.0778 13.8823 20.2173C14.996 19.4018 16.2296 18.6303 17.3767 17.8609L24.7406 12.9466C26.162 11.996 27.5884 11.0536 28.9939 10.0795C29.5413 9.70026 30.1004 9.28876 30.7197 9.03955Z" fill="#172023"/>
<path d="M30.6643 0C31.4166 0.154881 33.261 1.53728 34.0131 2.05009L39.5826 5.8443C40.4776 6.4604 42.6424 7.97737 43.527 8.41423L43.5404 8.51061C42.8377 8.68792 37.2437 8.52818 36.1676 8.59098C35.862 8.56531 35.358 8.49323 35.1005 8.35454C33.5748 7.5331 32.2726 6.44488 30.7421 5.58974C29.7509 6.12833 28.7319 6.87763 27.7881 7.51728L24.2903 9.85034C20.5803 12.4134 16.8263 14.9121 13.0299 17.3454C11.9995 18.0094 10.7395 18.9802 9.70583 19.5506C9.396 19.7819 8.73953 20.2917 8.39475 20.3539C7.44863 20.5246 6.11363 20.4609 5.14203 20.4591L0 20.4374C3.31839 18.1008 6.67528 15.8194 10.0694 13.5941C11.4101 12.7031 12.561 11.8888 13.9493 11.0053C13.9709 10.6365 13.9679 10.2252 13.967 9.85482C13.9607 7.3305 13.9993 4.79764 13.965 2.27412C15.338 2.19388 17.444 2.26297 18.865 2.2702C18.8115 3.46389 18.8693 4.70344 18.8422 5.90193C18.828 6.5255 18.8359 7.24259 18.8964 7.85894C19.0246 7.74156 19.2091 7.56213 19.3474 7.46818C22.0448 5.63665 24.7577 3.82443 27.482 2.03302C28.5267 1.34608 29.5279 0.522708 30.6643 0Z" fill="#07BE8A"/>
<path d="M31.2247 29.7373C32.5434 29.7234 34.0185 29.7743 35.3115 29.7261C35.3336 30.3791 35.4137 33.4516 35.2737 33.94C34.1798 33.8481 32.3519 33.9138 31.1749 33.888C31.2216 33.1779 31.0891 30.1526 31.2247 29.7373Z" fill="#07BE8A"/>
<path d="M26.2467 29.7217C27.5031 29.7464 29.0023 29.7524 30.252 29.7109C30.2235 30.9328 30.3693 32.7516 30.2302 33.9159C29.1003 33.8573 27.3733 33.9075 26.202 33.9092C26.2265 32.7321 26.123 30.8235 26.2467 29.7217Z" fill="#07BE8A"/>
<path d="M31.1653 24.7546C32.4843 24.6797 33.9844 24.721 35.3209 24.7289C35.3841 26.0597 35.3183 27.4709 35.3451 28.8138C34.2208 28.7333 32.4158 28.8145 31.1686 28.7819C31.2205 28.2231 31.2292 25.2782 31.1653 24.7546Z" fill="#07BE8A"/>
<path d="M27.1759 24.7063C28.1527 24.6799 29.2904 24.7165 30.2872 24.718C30.257 25.3019 30.3343 28.4607 30.2215 28.7195C29.9656 28.8358 29.6463 28.8107 29.3599 28.8121C28.3789 28.8514 27.1844 28.8146 26.1848 28.8045C26.2581 27.7879 26.2054 25.8091 26.2061 24.7251L27.1759 24.7063Z" fill="#07BE8A"/>
<path d="M123.298 16.8886C119.613 16.5996 117.789 13.6732 117.879 10.8191V6.35726C117.879 5.65276 118.493 5.11084 119.234 5.11084C120.011 5.11084 120.607 5.65276 120.607 6.35726V10.9455C120.553 12.6616 121.853 14.4499 123.949 14.4499C126.044 14.4499 127.273 12.6797 127.273 10.9455V6.35726C127.273 5.65276 127.887 5.11084 128.627 5.11084C129.404 5.11084 129.982 5.65276 129.982 6.35726V10.9455C130.036 12.77 129.242 14.6306 127.706 15.7867C128.916 16.7079 130 18.0627 130 19.9956C130 24.1142 125.9 25.3787 122.486 25.1438C121.618 25.0896 121.022 24.2587 121.366 23.5181L121.402 23.4097C121.618 22.9039 122.178 22.6149 122.757 22.6871C124.545 22.8316 127.309 22.1813 127.309 19.9956C127.309 18.1169 125.177 16.9428 123.298 16.8886Z" fill="#172023"/>
<path d="M107.872 7.8203C107.132 7.8203 106.535 7.20613 106.535 6.4655C106.535 5.68875 107.132 5.1107 107.872 5.1107H108.288C108.288 2.50949 109.534 0.395996 112.768 0.395996H115.188C115.965 0.395996 116.561 0.992109 116.561 1.73273V1.76886C116.561 2.50949 115.947 3.12366 115.206 3.12366H112.912C111.611 3.12366 110.997 3.95461 110.997 5.1107H115.188C115.965 5.1107 116.561 5.68875 116.561 6.4655C116.561 7.20613 115.965 7.8203 115.188 7.8203H110.997V16.6897C110.997 17.4665 110.383 18.0445 109.642 18.0445C108.902 18.0445 108.288 17.4665 108.288 16.6897V7.8203H107.872Z" fill="#172023"/>
<path d="M94.3103 11.5778C94.3103 8.3443 96.3877 5.11084 100.561 5.11084C103.523 5.11084 105.329 6.9353 106.052 9.21137L98.7541 14.9015C99.2418 15.1906 99.8199 15.3351 100.506 15.3351C101.879 15.3351 102.8 14.5403 103.324 13.5287C103.595 13.0951 104.029 12.8242 104.517 12.8242C105.293 12.8242 105.853 13.4564 105.853 14.1609C105.853 14.3957 105.817 14.5764 105.727 14.739C104.806 16.6176 103.017 18.0447 100.561 18.0447C96.3877 18.0447 94.3103 14.8112 94.3103 11.5778ZM97.0199 11.5778C97.0199 11.9932 97.0741 12.3545 97.1464 12.7339L102.493 8.57913C101.97 8.12753 101.301 7.82044 100.506 7.82044C98.3386 7.82044 97.0199 9.46426 97.0199 11.5778Z" fill="#172023"/>
<path d="M77.547 18.0447C76.8244 18.0447 76.2463 17.4666 76.2463 16.7441V9.95199C76.2463 7.27852 78.396 5.11084 81.0875 5.11084C82.4604 5.11084 83.6346 5.67082 84.5017 6.51983C84.5739 6.59209 84.6101 6.64628 84.6281 6.66434C85.4952 5.70695 86.7236 5.11084 88.1687 5.11084C90.8422 5.11084 93.0099 7.27852 93.0099 9.95199V16.7079C93.0099 17.4124 92.3957 18.0447 91.6912 18.0447C90.9145 18.0447 90.3003 17.5208 90.3003 16.7441V10.0784C90.3003 8.85009 89.4151 7.82044 88.1687 7.82044C86.9945 7.82044 86.0733 8.70558 85.9287 9.80748V16.7079C85.9287 17.3944 85.2965 18.0447 84.6281 18.0447C83.8514 18.0447 83.2191 17.5208 83.2191 16.7441V10.0784C83.2191 9.98812 83.2191 9.87974 83.2011 9.80748C83.0746 8.65138 82.2617 7.82044 81.1056 7.82044H81.0875C79.8411 7.82044 78.956 8.85009 78.956 10.0784V16.7441C78.956 17.4666 78.2153 18.0447 77.547 18.0447Z" fill="#172023"/>
<path d="M62.6626 11.7765C62.6626 8.38043 65.4084 5.11084 68.8044 5.11084C72.2005 5.11084 74.9462 8.38043 74.9462 11.7765C74.9462 15.1725 72.2005 18.0447 68.8044 18.0447C65.4084 18.0447 62.6626 15.1725 62.6626 11.7765ZM68.8044 7.82044C66.9257 7.82044 65.3722 9.51846 65.3722 11.7765C65.3722 13.6732 66.9077 15.3351 68.8044 15.3351C70.6831 15.3351 72.2366 13.6732 72.2366 11.7765C72.2366 9.64491 70.6831 7.82044 68.8044 7.82044Z" fill="#172023"/>
<path d="M50.7655 11.4165V16.7273C50.7655 17.5943 50.0791 18.0459 49.4107 18.0459C48.7423 18.0459 48.0559 17.5943 48.0559 16.7273V11.3623C48.0559 9.89908 49.2481 8.70685 50.7113 8.70685H58.6596V1.31867C58.6596 0.433537 59.346 0 60.0144 0C60.6828 0 61.3692 0.433537 61.3692 1.31867V16.7273C61.3692 17.5943 60.6828 18.0459 60.0144 18.0459C59.346 18.0459 58.6596 17.5943 58.6596 16.7273V11.4165H50.7655ZM48.0559 6.26821V1.31867C48.0559 0.433537 48.7423 0 49.4107 0C50.0791 0 50.7655 0.433537 50.7655 1.31867V8.05655H49.8443C48.8327 8.05655 48.0559 7.2798 48.0559 6.26821Z" fill="#172023"/>
<path d="M125.412 33.7034V33.509C125.412 32.3855 125.153 32.0399 124.85 31.9966C122.928 31.8022 121.199 39.8823 121.199 39.8823H119.277V30.3547H121.199V35.3021C121.199 35.3021 122.366 30.009 125.218 30.2035C126.816 30.3115 127.357 32.0831 127.357 33.4226V33.7034H125.412Z" fill="#07BE8A"/>
<path d="M108.422 34.4834C108.703 32.0205 110.863 30.2057 113.477 30.0977C116.761 29.9681 118.252 31.5668 117.863 33.2952C117.323 35.6069 111.36 37.3784 111.36 37.3784C111.965 37.9834 112.765 38.3507 113.65 38.3507C115.746 38.3507 116.675 36.5359 116.675 36.5359L117.971 37.3784C117.971 37.3784 116.502 39.9926 113.477 39.9926C111.706 39.9926 110.15 39.1068 109.221 37.7673C109.113 37.5945 108.833 37.0976 108.703 36.7951C108.703 36.7951 115.811 34.9155 115.832 32.7551C115.832 31.9773 114.709 31.6748 113.65 31.7181C112.073 31.7829 110.712 32.9063 110.453 34.4834H108.422Z" fill="#07BE8A"/>
<path d="M106.867 33.7698H104.944C104.469 32.5599 103.259 31.7173 101.963 31.7173C100.213 31.7173 98.7223 33.208 98.7223 35.0444C98.7223 36.8592 99.997 38.4795 102.093 38.2203C103.864 38.0042 104.577 35.7574 105.808 35.779C107.969 35.8006 107.213 39.819 107.213 39.819H105.333C105.333 39.819 105.787 37.9178 105.204 37.961C104.577 37.9826 103.994 39.6678 101.963 39.9919C98.9384 40.4672 96.7131 37.7666 96.7131 35.0444C96.7131 32.3222 99.0032 29.9241 101.812 30.097C103.13 30.1834 104.123 30.7019 104.944 31.4797V26.5322H106.867V33.7698Z" fill="#07BE8A"/>
<path d="M93.4956 26.5322H95.4184V39.819H93.4956V26.5322Z" fill="#07BE8A"/>
<path d="M90.5489 28.8661C91.2187 28.8661 91.7588 28.3476 91.7588 27.6995C91.7588 27.0297 91.2187 26.5112 90.5489 26.5112C89.8792 26.5112 89.3391 27.0297 89.3391 27.6995C89.3391 28.3476 89.8792 28.8661 90.5489 28.8661ZM89.62 30.292H91.5643V39.8196H89.62V30.292Z" fill="#07BE8A"/>
<path d="M85.6621 30.27H87.6064V39.7976H85.6621V34.6773C85.6621 34.6773 84.4522 40.4674 80.974 39.9489C79.3969 39.7328 78.7056 38.1341 78.7056 35.3903C78.7056 30.27 78.7056 30.27 78.7056 30.27H80.6283V35.2607C80.6283 35.2607 80.5419 38.0477 81.6005 38.1557C83.9986 38.4149 85.6621 30.27 85.6621 30.27Z" fill="#07BE8A"/>
<path d="M66.3638 26.3169H72.3697C75.1566 26.3169 76.7985 27.8292 76.6041 29.86C76.4529 31.1995 75.7183 31.7612 74.8758 32.4526C76.172 33.1223 77.4034 34.6779 77.4034 35.9957C77.4034 37.9401 75.6535 39.7765 72.953 39.7765H66.3638V26.3169ZM68.2865 35.218C70.879 32.0637 74.6165 31.6964 74.5949 29.4712C74.5949 28.607 73.6227 27.9588 72.1969 27.9588H68.2865V35.218ZM68.3081 38.1346H72.8018C74.4653 38.1346 75.3294 37.0328 75.3294 35.9957C75.3294 35.0451 74.3357 33.8785 73.2771 33.6192C73.2771 33.6192 69.6476 34.8939 68.3081 38.1346Z" fill="#07BE8A"/>
</svg>
